<svg id="Layer_1" xmlns="http://www.w3.org/2000/svg" viewBox="0 0 304.4 78.5"><style>.st0{fill:#0060cf}</style><g id="XMLID_18_"><path id="XMLID_19_" class="st0" d="M.6 6h8l5 16.8h.1L18.6 6h6.9l4.9 16.8h.1l5-16.8h8l-8.8 28H27l-4.9-17H22l-5 17H9.4L.6 6z"/><path id="XMLID_21_" class="st0" d="M54.5 11.6c6.3 0 10.3 3.9 10.3 10 0 1.1-.1 2.4-.3 3.2H50.9c.4 2.7 1.8 3.9 4.3 3.9 2.1 0 4-.6 5.9-1.7l3 4.5c-2.9 2.1-6.2 3-9.6 3-6.2 0-11.2-4.2-11.2-11.5 0-7.2 5.2-11.4 11.2-11.4zM51 20.9h6.8c0-2.3-.9-4.1-3.1-4.1-1.7 0-3.2 1.2-3.7 4.1z"/><path id="XMLID_24_" class="st0" d="M68 3.8h7.6v10.6c1.5-1.8 3.6-2.8 5.8-2.8 4.9 0 8.2 3.6 8.2 11.2 0 7.7-3.4 11.6-7.9 11.6-2.9 0-4.8-1.1-6.5-2.9l-.6 2.5H68V3.8zm10.9 25.1c2.3 0 3.2-2.6 3.2-6 0-3.6-1-5.7-3.2-5.7-1.3 0-2.4.6-3.3 1.6v8.6c1 1 2 1.5 3.3 1.5z"/><path id="XMLID_27_" class="st0" d="M106.9 5.5c4.2 0 7.7 1.4 10.7 3.9l-4.2 5.2c-1.7-1.4-3.5-2.6-6.3-2.6-4.4 0-7.3 3.1-7.3 8 0 5 2.8 8.1 7.3 8.1 2.7 0 4.7-1.1 6.4-2.7l4.5 4.7c-3.1 2.9-6.7 4.4-11.3 4.4C98 34.5 92 28.3 92 20c0-8.2 6.2-14.5 14.9-14.5z"/><path id="XMLID_29_" class="st0" d="M132.2 20.6v-1.2c0-1.4-.8-2-2.4-2-2 0-4 .7-7.1 2.2l-2.5-5.3c3.4-1.7 6.9-2.7 10-2.7 6.8 0 9.4 3.2 9.4 8.1v8.2c0 .9.6 1.3 1.5 1.3v4.9c-4.7 0-6.6-.5-8.2-2.8-1.9 2.2-3.8 3.2-6.8 3.2-3.7 0-6.4-2.3-6.4-5.8.1-4.1 3.2-7.3 12.5-8.1zm-3 8.8c1.3 0 2.4-.6 3-1.5v-3.6c-2.9.2-5 1.2-5 3.2 0 1.1.8 1.9 2 1.9z"/><path id="XMLID_32_" class="st0" d="M143.2 22.9c0-7.6 3.3-11.2 8.2-11.2 2.2 0 4.4 1 5.8 2.8V3.8h7.5V34h-6.6l-.4-2.4c-1.7 1.8-3.7 2.9-6.6 2.9-4.4-.1-7.9-3.9-7.9-11.6zm14 4.5v-8.6c-.9-1-2-1.6-3.4-1.6-2.2 0-3.2 2.1-3.2 5.7 0 3.4 1 6 3.2 6 1.4 0 2.5-.5 3.4-1.5z"/><path id="XMLID_35_" class="st0" d="M179.2 11.6c6.3 0 10.3 3.9 10.3 10 0 1.1-.1 2.4-.3 3.2h-13.6c.4 2.7 1.8 3.9 4.3 3.9 2.1 0 4-.6 5.9-1.7l3 4.5c-2.9 2.1-6.2 3-9.6 3-6.2 0-11.2-4.2-11.2-11.5-.1-7.2 5.1-11.4 11.2-11.4zm-3.6 9.3h6.8c0-2.3-.9-4.1-3.1-4.1-1.7 0-3.2 1.2-3.7 4.1z"/><path id="XMLID_38_" class="st0" d="M192.6 12.1h7.2l.3 2.1c1.7-1.5 4.1-2.6 6.1-2.6 2.9 0 4.6 1.1 5.5 3 2.2-2 4.3-3 6.9-3 4.5 0 6.6 3 6.6 7.8V34h-7.5V19.2c0-1.5-.6-2.2-1.8-2.2-1.1 0-2.2.6-3.2 1.8V34h-7.5V19.2c0-1.5-.6-2.2-1.8-2.2-1.1 0-2.4.8-3.2 1.9V34h-7.5V12.1z"/><path id="XMLID_40_" class="st0" d="M231.8 36.6c1.5 0 2.2-.4 2.7-2.1l.4-.9-7.9-21.5h7.4l4 12.8h.1l4-12.8h7.2l-7.4 21.3c-2.6 7.2-5.3 9-9.9 9-2.1 0-3.9-.4-5.5-.8l1.9-5.7c1 .3 2.1.7 3 .7z"/><path id="XMLID_42_" class="st0" d="M250.4 26.8h7.2V34h-7.2v-7.2z"/><path id="XMLID_44_" class="st0" d="M261.2 12.1h7l.4 3.1c1.7-3 3.8-3.8 6.1-3.8.8 0 1.7.1 2.4.3l-.9 6.8c-.7-.2-1.8-.4-3.1-.4-2 0-3.4 1.2-4.5 3.3V34h-7.5V12.1z"/><path id="XMLID_46_" class="st0" d="M279.6 12.1h7.5v14.6c0 1.4.6 2.4 2.1 2.4 1.3 0 2.5-.8 3.5-2v-15h7.5V34h-7l-.4-2.4c-1.4 1.6-3.8 2.9-6.4 2.9-4.9 0-6.8-2.9-6.8-8V12.1z"/></g><g id="XMLID_1_"><path id="XMLID_16_" class="st0" d="M12.4 56.5c0 1.8-.5 3.2-1.4 4.3-.9 1-2.2 1.6-3.8 1.6-1.7 0-2.9-.5-3.9-1.5-.9-1-1.4-2.5-1.4-4.3 0-1.8.5-3.3 1.4-4.3.9-1 2.2-1.5 3.9-1.5 1.6 0 2.9.5 3.8 1.5.9 1 1.4 2.4 1.4 4.2zm-9 0c0 1.5.3 2.7 1 3.5.7.8 1.6 1.2 2.8 1.2 1.3 0 2.2-.4 2.8-1.2.6-.8 1-1.9 1-3.5 0-1.5-.3-2.7-1-3.5-.6-.8-1.6-1.2-2.8-1.2-1.3 0-2.2.4-2.9 1.2s-.9 2-.9 3.5z"/><path id="XMLID_50_" class="st0" d="M25.8 58.9c0 1.1-.3 2-1 2.5s-1.7.8-3 .8h-3.3V50.9h6.7v1.2h-5.3v3.7h1.8c1 0 1.8.1 2.4.3s1.1.6 1.4 1 .3 1 .3 1.8zm-6 2.2h1.8c1 0 1.7-.2 2.1-.5.4-.3.7-.9.7-1.7 0-.7-.2-1.3-.7-1.6-.5-.3-1.2-.5-2.4-.5h-1.6v4.3z"/><path id="XMLID_53_" class="st0" d="M32.6 62.4c-.6 0-1.1-.1-1.5-.2v-1.3c.5.2 1 .3 1.5.3.6 0 1-.1 1.4-.4.3-.3.7-.7 1-1.5l-4.4-8.4H32l3.3 6.4c.1.3.2.5.3.7h.1c.1-.4.2-.7.3-.8l2.8-6.3h1.4L36.5 59c-.4 1-.8 1.7-1.2 2.1-.3.4-.7.8-1.2 1-.4.2-.9.3-1.5.3z"/><path id="XMLID_55_" class="st0" d="M53.2 62.2h-1.3v-4.7c-.8.3-1.4.5-1.9.6-.5.1-1 .2-1.6.2-1.1 0-1.9-.2-2.5-.7-.6-.5-.9-1.2-.9-2.1V51h1.3v4.3c0 .6.2 1.1.5 1.4s.9.4 1.6.4c.5 0 1 0 1.4-.1.5-.1 1.1-.3 2-.5V51h1.3v11.2z"/><path id="XMLID_57_" class="st0" d="M66.3 62.2H60V50.9h6.3v1.2h-5v3.6H66v1.2h-4.7V61h5v1.2z"/><path id="XMLID_59_" class="st0" d="M81 62.2h-1.3v-5.3h-6v5.3h-1.3V50.9h1.3v4.8h6v-4.8H81v11.3z"/><path id="XMLID_61_" class="st0" d="M87.7 50.9H89v6.3c0 1.2 0 2.2-.1 3.1h.1l6.3-9.4h1.4v11.3h-1.2V56c0-1 0-2.1.1-3.3h-.1l-6.3 9.5h-1.4V50.9z"/><path id="XMLID_63_" class="st0" d="M109.7 62.2h-6.3V50.9h6.3v1.2h-5v3.6h4.7v1.2h-4.7V61h5v1.2z"/><path id="XMLID_65_" class="st0" d="M123.6 50.9h3.2c1.5 0 2.6.2 3.3.7.7.4 1 1.2 1 2.1 0 .7-.2 1.2-.6 1.7s-.9.7-1.6.8v.1c1.7.3 2.6 1.2 2.6 2.7 0 1-.3 1.8-1 2.4-.7.6-1.6.8-2.9.8h-3.9V50.9zm1.3 4.8h2.2c.9 0 1.6-.1 2-.4.4-.3.6-.8.6-1.5 0-.6-.2-1.1-.7-1.4-.5-.3-1.2-.4-2.2-.4h-1.9v3.7zm0 1.2v4.2h2.4c.9 0 1.6-.2 2.1-.5.5-.4.7-.9.7-1.7 0-.7-.2-1.2-.7-1.5-.5-.3-1.2-.5-2.2-.5h-2.3z"/><path id="XMLID_69_" class="st0" d="M143.8 62.2h-6.3V50.9h6.3v1.2h-5v3.6h4.7v1.2h-4.7V61h5v1.2z"/><path id="XMLID_71_" class="st0" d="M157.3 58.9c0 1.1-.3 2-1 2.5s-1.7.8-3 .8H150V50.9h6.7v1.2h-5.3v3.7h1.8c1 0 1.8.1 2.4.3s1.1.6 1.4 1 .3 1 .3 1.8zm-6 2.2h1.8c1 0 1.7-.2 2.1-.5.4-.3.7-.9.7-1.7 0-.7-.2-1.3-.7-1.6-.5-.3-1.2-.5-2.4-.5h-1.6v4.3z"/><path id="XMLID_74_" class="st0" d="M162.4 58.6v-1.2h3.8v1.2h-3.8z"/><path id="XMLID_76_" class="st0" d="M179.2 54.2c0 1.1-.4 2-1.2 2.6-.8.6-1.9.9-3.3.9h-1.3v4.4H172V50.9h2.9c2.9 0 4.3 1.1 4.3 3.3zm-5.9 2.4h1.2c1.2 0 2-.2 2.5-.6s.8-1 .8-1.8c0-.7-.2-1.3-.7-1.7-.5-.4-1.3-.5-2.3-.5h-1.5v4.6z"/><path id="XMLID_79_" class="st0" d="M192.3 62.2l-1.4-3.6h-4.5l-1.4 3.6h-1.3l4.5-11.3h1.1l4.4 11.3h-1.4zm-1.8-4.8l-1.3-3.5c-.2-.4-.3-1-.5-1.6-.1.5-.3 1-.5 1.6l-1.3 3.5h3.6z"/><path id="XMLID_82_" class="st0" d="M205.4 53.6c0 .7-.2 1.3-.7 1.8s-1.1.8-2 .9v.1c.9.1 1.7.4 2.1.9.5.5.7 1.1.7 1.8 0 1.1-.4 1.9-1.2 2.5s-1.9.9-3.3.9c-1.3 0-2.4-.2-3.2-.6v-1.2c.5.2 1 .4 1.6.5.6.1 1.1.2 1.7.2 1 0 1.8-.2 2.3-.6s.8-.9.8-1.7c0-.7-.3-1.2-.9-1.6-.6-.4-1.4-.5-2.6-.5H199v-1.1h1.6c1.1 0 1.9-.2 2.5-.6.6-.4.9-.9.9-1.6 0-.6-.2-1-.6-1.3-.4-.3-1-.5-1.7-.5-.6 0-1.1.1-1.5.2-.5.1-1 .4-1.6.8l-.6-.9c.5-.4 1.1-.7 1.8-.9s1.3-.3 2-.3c1.2 0 2.1.3 2.7.8.6.4.9 1.1.9 2z"/><path id="XMLID_84_" class="st0" d="M218.9 54.2c0 1.1-.4 2-1.2 2.6-.8.6-1.9.9-3.3.9H213v4.4h-1.3V50.9h2.9c2.8 0 4.3 1.1 4.3 3.3zm-5.9 2.4h1.2c1.2 0 2-.2 2.5-.6s.8-1 .8-1.8c0-.7-.2-1.3-.7-1.7-.5-.4-1.3-.5-2.3-.5H213v4.6z"/><path id="XMLID_87_" class="st0" d="M232 62.2l-1.4-3.6H226l-1.4 3.6h-1.3l4.5-11.3h1.1l4.4 11.3H232zm-1.9-4.8l-1.3-3.5c-.2-.4-.3-1-.5-1.6-.1.5-.3 1-.5 1.6l-1.3 3.5h3.6z"/><path id="XMLID_90_" class="st0" d="M245.8 58.9c0 1.1-.3 2-1 2.5s-1.7.8-3 .8h-3.3V50.9h6.7v1.2h-5.3v3.7h1.8c1 0 1.8.1 2.4.3s1.1.6 1.4 1 .3 1 .3 1.8zm-6 2.2h1.8c1 0 1.7-.2 2.1-.5s.7-.9.7-1.7c0-.7-.2-1.3-.7-1.6-.5-.3-1.2-.5-2.4-.5h-1.6v4.3z"/><path id="XMLID_93_" class="st0" d="M261.7 56.5c0 1.8-.5 3.2-1.4 4.3-.9 1-2.2 1.6-3.8 1.6-1.7 0-2.9-.5-3.9-1.5-.9-1-1.4-2.5-1.4-4.3 0-1.8.5-3.3 1.4-4.3.9-1 2.2-1.5 3.9-1.5 1.6 0 2.9.5 3.8 1.5.9 1 1.4 2.4 1.4 4.2zm-9 0c0 1.5.3 2.7 1 3.5.7.8 1.6 1.2 2.8 1.2 1.3 0 2.2-.4 2.8-1.2.6-.8 1-1.9 1-3.5 0-1.5-.3-2.7-1-3.5-.6-.8-1.6-1.2-2.8-1.2-1.3 0-2.2.4-2.9 1.2-.6.9-.9 2-.9 3.5z"/><path id="XMLID_96_" class="st0" d="M271.3 62.2H270V52.1h-3.6v-1.2h8.5v1.2h-3.6v10.1z"/><path id="XMLID_98_" class="st0" d="M288.3 62.2h-1.6l-5.2-5.7v5.7h-1.3V50.9h1.3v5.5l5.1-5.5h1.5l-5 5.5 5.2 5.8z"/><path id="XMLID_100_" class="st0" d="M299.8 62.2h-6.3V50.9h6.3v1.2h-5v3.6h4.7v1.2h-4.7V61h5v1.2z"/></g></svg>